<svg width="22" height="20" viewBox="0 0 22 20" fill="none" xmlns="http://www.w3.org/2000/svg">
<path d="M1.35963 3.01666L4.99297 2.51666V1.14999C4.99297 0.783322 5.29297 0.483322 5.65964 0.483322H15.9263C16.293 0.483322 16.593 0.783322 16.593 1.14999V2.51666L20.2263 3.01666C20.5596 3.04999 20.793 3.34999 20.793 3.68332C20.793 3.84999 20.693 7.58332 16.5596 10.1833C16.2596 12.8833 14.1263 15.0167 11.4596 15.3167V18.1833H14.193C14.5596 18.1833 14.8596 18.4833 14.8596 18.85C14.8596 19.2167 14.5596 19.5167 14.193 19.5167H7.4263C7.05964 19.5167 6.75964 19.2167 6.75964 18.85C6.75964 18.4833 7.05964 18.1833 7.4263 18.1833H10.1263V15.3167C7.45964 15.0167 5.3263 12.8833 5.0263 10.1833C0.892968 7.61666 0.792969 3.84999 0.792969 3.68332C0.792969 3.34999 1.0263 3.04999 1.35963 3.01666ZM16.593 8.54999C18.6263 6.98332 19.2263 5.18332 19.393 4.24999L16.593 3.88332V8.54999ZM6.3263 9.58332C6.3263 12.05 8.3263 14.05 10.793 14.05C13.2596 14.05 15.2596 12.05 15.2596 9.58332V1.84999H6.3263V9.58332ZM4.99297 8.54999V3.88332L2.19297 4.24999C2.39297 5.18332 2.99297 6.98332 4.99297 8.54999Z" fill="#1A1917" stroke="#1A1917" stroke-width="0.5"/>
</svg>
